<svg width="66" height="66" viewBox="0 0 66 66" fill="none" xmlns="http://www.w3.org/2000/svg">
<path d="M60.989 36.9784C64.9096 29.4933 56.9405 24.3025 46.5213 21.7569C47.3053 19.9712 47.5325 17.6338 45.3219 15.402C42.4871 12.5456 44.3712 8.38456 44.3712 8.38456C44.3712 8.38456 38.4212 13.8851 42.1781 17.6779C43.5637 19.0758 44.2852 20.3035 44.6301 21.3302C41.7538 20.736 38.8413 20.3338 35.9118 20.1261C36.7868 17.7425 36.8718 14.7487 34.1148 11.882C30.3405 7.95276 32.8539 2.23071 32.8539 2.23071C32.8539 2.23071 24.9196 9.79379 29.9291 15.0082C31.7579 16.9097 32.7209 18.5835 33.1876 19.9866C30.0826 19.8933 27.0943 20.0297 24.4396 20.402C24.7558 18.8687 24.4918 17.1056 22.8042 15.403C19.9694 12.5466 21.8545 8.38456 21.8545 8.38456C21.8545 8.38456 15.9035 13.8851 19.6614 17.6779C20.8383 18.8656 21.5281 19.9261 21.9241 20.8502C21.4759 20.9487 21.0409 21.0553 20.6224 21.1712C7.68464 19.9579 2.04166 22.6369 4.61959 27.8923C0.120755 32.401 1.8114 37.5466 7.44108 41.484C10.3782 53.6082 11.1345 63.7692 33.2561 63.7692C52.9953 63.7692 55.7227 55.6769 58.1675 45.3199C65.5032 43.8564 63.9405 40.3323 60.989 36.9784ZM59.1602 35.7671C56.7031 41.0184 46.0393 44.9712 33.2561 44.9712C20.474 44.9712 9.81023 41.0184 7.35204 35.7671C7.29985 35.6112 7.2497 35.4492 7.19956 35.2912C8.37032 32.3148 12.1753 29.7323 17.5194 28.003C16.2637 29.2194 16.0028 31.0358 19.3073 31.6728C20.2529 31.8553 22.8493 31.2235 21.7143 27.9948C21.5557 27.5435 21.2968 27.241 20.9785 27.0584C24.6504 26.2164 28.8187 25.7312 33.2561 25.7312C33.7535 25.7312 34.2417 25.7487 34.7319 25.7599C32.1713 26.6707 30.0826 29.4769 35.3111 30.3046C36.4655 30.4871 39.6349 29.8553 38.2493 26.6266C38.1282 26.3388 37.9342 26.0878 37.6864 25.8984C42.5854 26.2594 47.0238 27.2051 50.6118 28.5682C47.4567 28.3917 43.9567 30.3405 49.5618 33.084C50.7643 33.6728 54.4178 34.2133 53.9153 30.6482C53.879 30.3906 53.7883 30.1437 53.6493 29.924C56.5178 31.4389 58.5186 33.2758 59.3117 35.2912L59.1602 35.7671Z" fill="#195360"/>
<path d="M26.4414 37.9651C29.75 37.9651 31.9564 34.9671 33.6849 33.7938C36.1001 32.1528 42.1729 31.5128 36.8247 31.3836C31.7517 31.2615 25.4886 35.3887 21.3029 35.1046C14.3725 34.6328 21.4707 37.9651 26.4414 37.9651ZM33.5908 44.0902C34.7595 44.3159 37.9719 43.5343 36.5668 39.5415C34.9795 35.0236 25.3709 42.5046 33.5908 44.0902ZM15.399 34.2082C14.2824 32.6287 12.6634 30.6256 11.9931 31.6687C11.0772 33.0954 10.7886 35.9661 11.4538 36.0933C16.669 37.0954 16.3036 35.4871 15.399 34.2082ZM45.7169 34.8482C46.6574 33.681 44.7795 30.8718 43.574 31.363C41.6868 32.1323 40.599 31.6113 39.77 32.7784C37.8286 35.5118 44.4387 36.4328 45.7169 34.8482ZM45.1295 38.1928C43.7766 37.5948 44.0959 39.5979 42.0972 37.9907C40.6665 36.84 37.5881 39.7425 39.6185 41.7138C41.8782 43.9077 42.4799 41.8225 43.4297 41.9979C45.3598 42.3538 48.6786 39.762 45.1295 38.1928ZM22.6333 38.8779C21.9282 38.1825 20.9826 39.0215 20.4484 40.0451C19.9193 39.7846 19.4884 39.7241 19.4884 39.7241C19.0842 38.5692 17.8817 37.7774 17.8817 37.7774C17.8817 37.7774 17.9912 38.9784 18.1498 39.5641C16.8215 39.0913 16.7805 36.7118 16.7805 36.7118C16.7805 36.7118 15.8892 37.2461 15.97 38.1538C14.5076 36.9713 13.2621 37.5241 13.2621 37.5241C13.2621 37.5241 15.1175 38.5702 15.3734 39.2759C14.3316 39.3569 13.7237 39.7179 13.3696 40.5579C13.3706 40.5651 15.4286 39.5764 16.9514 40.2902C16.3507 40.7825 16.6495 42.0123 16.6495 42.0123C18.0669 40.5066 19.1988 40.6677 20.1045 40.9374C19.995 41.3979 20.0022 41.8184 20.1966 42.0738C21.7675 44.1436 27.2396 43.6779 28.7092 42.1477C30.4889 40.2964 25.5438 41.7487 22.6333 38.8779Z" fill="#195360"/>
<path d="M26.4987 31.082C26.033 32.0194 26.0299 32.7271 26.5683 33.4635C26.5754 33.4656 26.7852 31.1887 28.178 30.2451C28.2916 31.0143 29.4972 31.3876 29.4972 31.3876C28.5332 27.9661 31.3475 27.7876 31.3342 26.5599C29.8421 26.6861 28.9947 27.7733 28.9947 27.7733C27.7984 27.5281 26.5017 28.1548 26.5017 28.1548C26.5017 28.1548 27.5875 28.6769 28.1699 28.842C27.083 29.7415 25.024 28.5548 25.024 28.5548C25.024 28.5548 25.024 29.5969 25.8427 29.9917C24.0794 30.643 23.9136 31.9969 23.9136 31.9969C23.9136 31.9969 25.7618 30.9394 26.4987 31.082ZM52.6473 35.7548C53.071 34.9487 52.4529 34.1107 52.4529 34.1107C52.4529 34.1107 51.5022 36.2922 50.095 36.2174C50.4655 35.7374 51.0283 34.6707 51.0283 34.6707C51.0283 34.6707 49.614 34.9404 48.7973 35.8502C48.7973 35.8502 47.471 35.482 46.1979 36.2697C46.9163 37.2646 49.2845 35.7292 50.5402 39.0543C50.5402 39.0543 51.2873 38.0358 50.9219 37.3497C52.6023 37.2769 54.1231 38.9815 54.1282 38.9753C54.1221 38.0625 53.7004 37.4963 52.7681 37.0204C53.2757 36.4676 55.39 36.2163 55.39 36.2163C55.39 36.2163 54.4526 35.2266 52.6473 35.7548Z" fill="#195360"/>
</svg>
