<svg width="72" height="73" viewBox="0 0 72 73" fill="none" xmlns="http://www.w3.org/2000/svg">
<path d="M35.6788 3.71814C32.7125 3.71814 30.0121 5.22976 28.613 7.59254L27.9973 8.633L26.934 8.06089C25.9406 7.52102 24.8072 7.23497 23.6739 7.23497C19.7143 7.23497 16.4962 10.5401 16.4962 14.6963C16.4962 18.4122 19.0986 21.5112 22.5826 22.0721L23.6459 22.2404V29.7284C31.7471 28.1719 39.8763 28.1018 47.9915 29.7284V19.9547L48.6631 19.5901C50.8598 18.4263 52.3149 15.9303 52.3149 13.1188C52.3149 9.08032 49.4186 5.95051 45.9627 5.95051C45.0532 5.95051 44.1438 6.17627 43.3182 6.61237L42.4508 7.06109L41.8071 6.34735C40.296 4.69691 38.0574 3.71814 35.6788 3.71814ZM35.8187 31.0324C32.2368 31.0324 28.6689 31.369 25.0871 32.014C24.9612 32.8554 24.9052 33.7247 24.9052 34.6222C24.9052 38.6887 26.1924 42.3626 28.2072 44.9567C30.222 47.5509 32.8944 49.0653 35.8187 49.0653C38.743 49.0653 41.4154 47.5509 43.4302 44.9567C45.445 42.3626 46.7322 38.6887 46.7322 34.6222C46.7322 33.7247 46.6623 32.8413 46.5503 32C42.9685 31.3409 39.4006 31.0184 35.8187 31.0324ZM29.2006 49.3878L16.72 53.5525L12.8052 69.2576H44.9972L42.9685 54.9968L45.459 54.6322L47.5437 69.2576H58.835L54.9173 53.5525L42.4368 49.3878C40.5059 50.776 38.2393 51.5893 35.8187 51.5893C33.3981 51.5893 31.1315 50.776 29.2006 49.3878ZM38.8969 56.7776C39.0806 56.7776 39.2626 56.8139 39.4323 56.8843C39.6021 56.9548 39.7563 57.0581 39.8863 57.1883C40.0162 57.3185 40.1193 57.4731 40.1896 57.6432C40.2599 57.8134 40.2961 57.9957 40.296 58.1799C40.2961 58.364 40.2599 58.5464 40.1896 58.7165C40.1193 58.8866 40.0162 59.0412 39.8863 59.1715C39.7563 59.3017 39.6021 59.405 39.4323 59.4754C39.2626 59.5459 39.0806 59.5821 38.8969 59.5821C38.7131 59.5821 38.5312 59.5459 38.3614 59.4754C38.1916 59.405 38.0374 59.3017 37.9075 59.1715C37.7775 59.0412 37.6745 58.8866 37.6042 58.7165C37.5339 58.5464 37.4977 58.364 37.4977 58.1799C37.4977 57.9957 37.5339 57.8134 37.6042 57.6432C37.6745 57.4731 37.7775 57.3185 37.9075 57.1883C38.0374 57.0581 38.1916 56.9548 38.3614 56.8843C38.5312 56.8139 38.7131 56.7776 38.8969 56.7776ZM39.8763 63.228C40.2474 63.228 40.6033 63.3757 40.8657 63.6387C41.128 63.9016 41.2755 64.2583 41.2755 64.6302C41.2755 65.0021 41.128 65.3588 40.8657 65.6217C40.6033 65.8847 40.2474 66.0324 39.8763 66.0324C39.5052 66.0324 39.1493 65.8847 38.8869 65.6217C38.6245 65.3588 38.4771 65.0021 38.4771 64.6302C38.4771 64.2583 38.6245 63.9016 38.8869 63.6387C39.1493 63.3757 39.5052 63.228 39.8763 63.228Z" fill="#195360"/>
</svg>
