<svg width="100" height="100" viewBox="0 0 100 100" fill="none" xmlns="http://www.w3.org/2000/svg">
<path d="M90.625 21.875H75V16.4062C75 15.9766 74.6484 15.625 74.2188 15.625H68.75C68.3203 15.625 67.9688 15.9766 67.9688 16.4062V21.875H53.5156V16.4062C53.5156 15.9766 53.1641 15.625 52.7344 15.625H47.2656C46.8359 15.625 46.4844 15.9766 46.4844 16.4062V21.875H32.0312V16.4062C32.0312 15.9766 31.6797 15.625 31.25 15.625H25.7812C25.3516 15.625 25 15.9766 25 16.4062V21.875H9.375C7.64648 21.875 6.25 23.2715 6.25 25V81.25C6.25 82.9785 7.64648 84.375 9.375 84.375H90.625C92.3535 84.375 93.75 82.9785 93.75 81.25V25C93.75 23.2715 92.3535 21.875 90.625 21.875ZM86.7188 77.3438H13.2812V28.9062H25V34.375C25 34.8047 25.3516 35.1562 25.7812 35.1562H31.25C31.6797 35.1562 32.0312 34.8047 32.0312 34.375V28.9062H46.4844V34.375C46.4844 34.8047 46.8359 35.1562 47.2656 35.1562H52.7344C53.1641 35.1562 53.5156 34.8047 53.5156 34.375V28.9062H67.9688V34.375C67.9688 34.8047 68.3203 35.1562 68.75 35.1562H74.2188C74.6484 35.1562 75 34.8047 75 34.375V28.9062H86.7188V77.3438ZM40.625 48.4375H22.6562C22.2266 48.4375 21.875 48.7891 21.875 49.2188V53.9062C21.875 54.3359 22.2266 54.6875 22.6562 54.6875H40.625C41.0547 54.6875 41.4062 54.3359 41.4062 53.9062V49.2188C41.4062 48.7891 41.0547 48.4375 40.625 48.4375ZM40.625 61.7188H22.6562C22.2266 61.7188 21.875 62.0703 21.875 62.5V67.1875C21.875 67.6172 22.2266 67.9688 22.6562 67.9688H40.625C41.0547 67.9688 41.4062 67.6172 41.4062 67.1875V62.5C41.4062 62.0703 41.0547 61.7188 40.625 61.7188ZM70.7227 44.3945L60.6055 58.4277L55.4492 51.2891C55.1562 50.8789 54.6875 50.6445 54.1895 50.6445H48.8281C48.1934 50.6445 47.8223 51.3672 48.1934 51.8848L59.3359 67.334C59.4798 67.5336 59.669 67.6962 59.8881 67.8084C60.1071 67.9205 60.3496 67.979 60.5957 67.979C60.8418 67.979 61.0843 67.9205 61.3033 67.8084C61.5224 67.6962 61.7116 67.5336 61.8555 67.334L77.9688 45C78.3398 44.4824 77.9688 43.7598 77.334 43.7598H71.9727C71.4844 43.75 71.0156 43.9941 70.7227 44.3945Z" fill="#195360"/>
</svg>
