<svg width="299" height="369" viewBox="0 0 299 369" fill="none" xmlns="http://www.w3.org/2000/svg">
<path d="M72.3551 341.545V359H68.7074V344.545H61.6506V359H58.0028V341.545H72.3551ZM81.7152 359.256C80.3913 359.256 79.2464 358.974 78.2805 358.412C77.3203 357.844 76.5788 357.054 76.0561 356.043C75.5334 355.026 75.272 353.847 75.272 352.506C75.272 351.153 75.5334 349.972 76.0561 348.96C76.5788 347.943 77.3203 347.153 78.2805 346.591C79.2464 346.023 80.3913 345.739 81.7152 345.739C83.0391 345.739 84.1811 346.023 85.1413 346.591C86.1072 347.153 86.8516 347.943 87.3743 348.96C87.897 349.972 88.1584 351.153 88.1584 352.506C88.1584 353.847 87.897 355.026 87.3743 356.043C86.8516 357.054 86.1072 357.844 85.1413 358.412C84.1811 358.974 83.0391 359.256 81.7152 359.256ZM81.7322 356.443C82.3345 356.443 82.8374 356.273 83.2408 355.932C83.6442 355.585 83.9482 355.114 84.1527 354.517C84.3629 353.92 84.468 353.241 84.468 352.48C84.468 351.719 84.3629 351.04 84.1527 350.443C83.9482 349.847 83.6442 349.375 83.2408 349.028C82.8374 348.682 82.3345 348.509 81.7322 348.509C81.1243 348.509 80.6129 348.682 80.1982 349.028C79.7891 349.375 79.4794 349.847 79.2692 350.443C79.0646 351.04 78.9624 351.719 78.9624 352.48C78.9624 353.241 79.0646 353.92 79.2692 354.517C79.4794 355.114 79.7891 355.585 80.1982 355.932C80.6129 356.273 81.1243 356.443 81.7322 356.443ZM89.8459 355.293H93.3658C93.3828 355.724 93.576 356.065 93.9453 356.315C94.3146 356.565 94.7919 356.69 95.3771 356.69C95.968 356.69 96.4652 356.554 96.8686 356.281C97.272 356.003 97.4737 355.605 97.4737 355.088C97.4737 354.77 97.3942 354.494 97.2351 354.261C97.076 354.023 96.8544 353.835 96.5703 353.699C96.2862 353.562 95.9567 353.494 95.5817 353.494H93.6982V351.116H95.5817C96.1442 351.116 96.576 350.986 96.8771 350.724C97.1839 350.463 97.3374 350.136 97.3374 349.744C97.3374 349.301 97.1783 348.946 96.8601 348.679C96.5476 348.406 96.1243 348.27 95.5902 348.27C95.0504 348.27 94.6016 348.392 94.2436 348.636C93.8913 348.875 93.7095 349.187 93.6982 349.574H90.1953C90.2067 348.79 90.4425 348.111 90.9027 347.537C91.3686 346.963 91.9936 346.52 92.7777 346.207C93.5675 345.895 94.451 345.739 95.4283 345.739C96.4964 345.739 97.4169 345.889 98.1896 346.19C98.968 346.486 99.5646 346.909 99.9794 347.46C100.4 348.011 100.61 348.668 100.61 349.429C100.61 350.122 100.383 350.702 99.9283 351.168C99.4737 351.634 98.8374 351.966 98.0192 352.165V352.301C98.5589 352.335 99.0476 352.48 99.4851 352.736C99.9226 352.991 100.272 353.344 100.533 353.793C100.795 354.236 100.925 354.761 100.925 355.369C100.925 356.182 100.687 356.878 100.21 357.457C99.7379 358.037 99.0845 358.483 98.2493 358.795C97.4197 359.102 96.468 359.256 95.3942 359.256C94.3487 359.256 93.4112 359.105 92.5817 358.804C91.7578 358.497 91.1016 358.048 90.6129 357.457C90.13 356.866 89.8743 356.145 89.8459 355.293ZM106.621 354.21L111.334 345.909H114.913V359H111.453V350.673L106.757 359H103.152V345.909H106.621V354.21ZM129.27 345.909V356.494H131.358V363.21H127.83V359H117.824V345.909H121.293V356.145H125.844V345.909H129.27ZM133.597 359V345.909H137.228V359H133.597ZM135.421 344.222C134.881 344.222 134.418 344.043 134.032 343.685C133.651 343.321 133.461 342.886 133.461 342.381C133.461 341.881 133.651 341.452 134.032 341.094C134.418 340.73 134.881 340.548 135.421 340.548C135.961 340.548 136.421 340.73 136.802 341.094C137.188 341.452 137.381 341.881 137.381 342.381C137.381 342.886 137.188 343.321 136.802 343.685C136.421 344.043 135.961 344.222 135.421 344.222ZM143.605 354.21L148.318 345.909H151.898V359H148.438V350.673L143.741 359H140.136V345.909H143.605V354.21ZM147.696 341.341H150.227C150.222 342.375 149.838 343.207 149.077 343.838C148.321 344.469 147.298 344.784 146.009 344.784C144.713 344.784 143.688 344.469 142.932 343.838C142.176 343.207 141.798 342.375 141.798 341.341H144.312C144.307 341.733 144.432 342.085 144.688 342.398C144.949 342.71 145.389 342.866 146.009 342.866C146.611 342.866 147.043 342.713 147.304 342.406C147.565 342.099 147.696 341.744 147.696 341.341ZM168.102 354.986L171.647 345.909H174.408L169.303 359H166.891L161.906 345.909H164.658L168.102 354.986ZM163.832 345.909V359H160.363V345.909H163.832ZM172.55 359V345.909H175.977V359H172.55ZM184.751 359.256C183.404 359.256 182.245 358.983 181.273 358.438C180.308 357.886 179.563 357.108 179.04 356.102C178.518 355.091 178.256 353.895 178.256 352.514C178.256 351.168 178.518 349.986 179.04 348.969C179.563 347.952 180.299 347.159 181.248 346.591C182.202 346.023 183.322 345.739 184.606 345.739C185.469 345.739 186.273 345.878 187.018 346.156C187.768 346.429 188.421 346.841 188.978 347.392C189.54 347.943 189.978 348.636 190.29 349.472C190.603 350.301 190.759 351.273 190.759 352.386V353.384H179.705V351.134H187.342C187.342 350.611 187.228 350.148 187.001 349.744C186.773 349.341 186.458 349.026 186.055 348.798C185.657 348.565 185.194 348.449 184.665 348.449C184.114 348.449 183.626 348.577 183.2 348.832C182.779 349.082 182.45 349.42 182.211 349.847C181.972 350.267 181.85 350.736 181.844 351.253V353.392C181.844 354.04 181.964 354.599 182.202 355.071C182.447 355.543 182.79 355.906 183.234 356.162C183.677 356.418 184.202 356.545 184.81 356.545C185.214 356.545 185.583 356.489 185.918 356.375C186.254 356.261 186.54 356.091 186.779 355.864C187.018 355.636 187.2 355.358 187.325 355.028L190.683 355.25C190.512 356.057 190.163 356.761 189.634 357.364C189.112 357.96 188.435 358.426 187.606 358.761C186.782 359.091 185.83 359.256 184.751 359.256ZM202.239 351.006V353.861H195.404V351.006H202.239ZM196.597 345.909V359H193.129V345.909H196.597ZM204.515 345.909V359H201.072V345.909H204.515ZM214.567 351.082V353.963H207.468V351.082H214.567ZM210.272 345.909V359H206.65V345.909H210.272ZM218.488 359.256C217.192 359.256 216.073 358.966 215.13 358.386C214.187 357.807 213.46 357.006 212.948 355.983C212.442 354.96 212.19 353.787 212.19 352.463C212.19 351.139 212.442 349.972 212.948 348.96C213.46 347.949 214.187 347.159 215.13 346.591C216.073 346.023 217.192 345.739 218.488 345.739C219.789 345.739 220.908 346.023 221.846 346.591C222.789 347.159 223.513 347.949 224.019 348.96C224.531 349.972 224.786 351.139 224.786 352.463C224.786 353.787 224.531 354.96 224.019 355.983C223.513 357.006 222.789 357.807 221.846 358.386C220.908 358.966 219.789 359.256 218.488 359.256ZM218.488 356.324C219.164 356.324 219.71 356.159 220.124 355.83C220.539 355.494 220.843 355.037 221.036 354.457C221.229 353.872 221.326 353.207 221.326 352.463C221.326 351.719 221.229 351.06 221.036 350.486C220.843 349.906 220.539 349.452 220.124 349.122C219.71 348.793 219.164 348.628 218.488 348.628C217.817 348.628 217.272 348.793 216.852 349.122C216.431 349.446 216.121 349.895 215.923 350.469C215.729 351.043 215.633 351.707 215.633 352.463C215.633 353.213 215.729 353.878 215.923 354.457C216.121 355.037 216.431 355.494 216.852 355.83C217.272 356.159 217.817 356.324 218.488 356.324Z" fill="#F5F5F5"/>
<path d="M119.158 317L130.011 295.523V295.344H117.368V290.818H135.739V295.408L124.872 317H119.158ZM149.235 317.575C147.037 317.567 145.145 317.026 143.559 315.952C141.983 314.878 140.768 313.322 139.916 311.286C139.072 309.249 138.654 306.798 138.663 303.935C138.663 301.08 139.085 298.646 139.929 296.635C140.781 294.624 141.995 293.094 143.572 292.045C145.157 290.989 147.045 290.46 149.235 290.46C151.426 290.46 153.309 290.989 154.886 292.045C156.471 293.102 157.69 294.636 158.542 296.648C159.395 298.651 159.816 301.08 159.808 303.935C159.808 306.807 159.382 309.261 158.529 311.298C157.686 313.335 156.475 314.891 154.899 315.964C153.322 317.038 151.434 317.575 149.235 317.575ZM149.235 312.986C150.735 312.986 151.933 312.232 152.828 310.723C153.723 309.214 154.166 306.952 154.157 303.935C154.157 301.949 153.953 300.295 153.544 298.974C153.143 297.653 152.572 296.661 151.831 295.996C151.098 295.331 150.233 294.999 149.235 294.999C147.744 294.999 146.551 295.744 145.656 297.236C144.761 298.727 144.309 300.96 144.301 303.935C144.301 305.946 144.501 307.625 144.902 308.972C145.311 310.31 145.886 311.315 146.627 311.989C147.369 312.653 148.238 312.986 149.235 312.986ZM171.579 313.011V294.909H176.156V313.011H171.579ZM164.816 306.249V301.672H182.918V306.249H164.816Z" fill="#60A2B8"/>
<path d="M149.201 59.8127C145.733 60.8753 143.4 63.336 142.772 66.6077L142.563 67.6703L144.895 67.4466C146.211 67.3347 149.201 67.2508 151.593 67.2508C153.985 67.2508 156.975 67.3347 158.291 67.4466L160.623 67.6703L160.413 66.6077C159.875 63.8394 158.141 61.6303 155.51 60.372C154.105 59.7008 150.576 59.3933 149.201 59.8127Z" fill="#121212"/>
<path d="M145.314 70.6344C129.347 72.4241 116.281 78.2404 105.667 88.2791C95.1717 98.2059 88.8927 110.566 87.1286 124.771L86.9492 126.393H151.563H216.177V125.805C216.177 124.351 215.16 118.954 214.234 115.599C208.612 95.0741 191.24 78.492 169.294 72.6757C163.493 71.1378 159.875 70.6904 152.789 70.6065C149.261 70.5505 145.882 70.5785 145.314 70.6344ZM133.892 82.8263C134.281 83.1898 134.371 84.4202 134.012 84.9235C133.892 85.0913 132.696 85.6785 131.351 86.2098C124.803 88.8104 118.045 93.592 114.218 98.3737C113.471 99.2965 112.603 100.191 112.245 100.331C111.318 100.751 110.211 100.135 110.092 99.1567C109.942 98.0941 111.049 96.6679 114.667 93.1726C119.092 88.8663 123.308 86.07 128.869 83.6931C131.739 82.4907 133.234 82.2111 133.892 82.8263Z" fill="#121212"/>
<path d="M67.6936 130.699C66.8265 131.51 66.677 131.845 66.677 132.936C66.677 133.943 66.8564 134.39 67.5441 135.117L68.4112 136.04L151.443 136.124L234.476 136.18L235.492 135.229C236.359 134.418 236.509 134.082 236.509 132.964C236.509 131.845 236.359 131.51 235.492 130.699L234.476 129.748H151.593H68.7102L67.6936 130.699Z" fill="#121212"/>
<path d="M166.094 140.458C160.264 143.394 154.314 149.126 148.095 157.739C145.553 161.29 141.726 167.274 140.081 170.294L139.334 171.693H140.171C141.726 171.693 145.673 170.602 148.125 169.483C151.922 167.75 152.819 167.023 154.374 164.366C158.829 156.704 165.706 149.07 174.167 142.359C175.991 140.905 177.516 139.703 177.576 139.647C177.636 139.591 175.483 139.535 172.792 139.535H167.888L166.094 140.458Z" fill="#121212"/>
<path d="M195.247 140.262C190.762 141.493 186.516 143.562 181.074 147.169C176.47 150.217 172.374 153.656 165.227 160.423C158.291 166.995 155.839 169.008 151.772 171.301C146.39 174.349 139.185 175.747 134.55 174.657C130.932 173.818 128.391 172.42 125.401 169.623C122.112 166.547 119.899 163.443 115.564 155.893C108.866 144.233 105.697 140.933 100.703 140.458C98.9092 140.29 95.5903 140.961 94.7531 141.66C93.5571 142.667 93.7664 143.366 96.0687 145.715C97.4441 147.113 97.8627 147.393 98.072 147.085C98.4607 146.526 98.4308 145.296 98.0421 144.457C97.2946 142.919 99.6268 141.548 100.823 142.807C102.168 144.261 102.198 146.861 100.883 148.987L100.135 150.189L101.421 152.063C105.457 157.851 107.491 162.605 111.497 175.635C115.175 187.576 117.627 193.56 121.215 199.18L122.949 201.893H128.122C133.922 201.893 134.371 202.032 134.191 203.682C134.042 205.08 133.264 205.276 127.972 205.22L123.338 205.164L121.484 210.03C120.467 212.714 119.63 214.979 119.63 215.119C119.6 215.231 126.417 215.287 134.759 215.259L149.919 215.175L151.414 210.561L152.939 205.947L155.6 204.717C157.603 203.794 158.769 203.011 160.414 201.501C164.121 198.034 166.603 193.811 171.327 182.878C179.251 164.562 185.44 156.453 196.144 150.441L198.387 149.182L198.117 148.148C197.4 145.491 200.001 142.331 202.842 142.331C203.32 142.331 203.798 142.583 204.097 143.031C204.785 144.009 204.307 144.904 202.812 145.575C201.975 145.967 201.646 146.302 201.586 146.861C201.526 147.309 201.556 147.644 201.646 147.644C201.705 147.644 202.812 147.281 204.068 146.833C205.323 146.386 206.729 145.911 207.207 145.827C208.164 145.631 209.3 144.513 209.3 143.786C209.3 142.947 206.25 140.542 204.546 140.011C202.154 139.283 198.387 139.395 195.247 140.262Z" fill="#121212"/>
</svg>
