<svg width="100" height="100" viewBox="0 0 100 100" fill="none" xmlns="http://www.w3.org/2000/svg">
<path d="M48.7812 54.5625C46.0312 54.5625 43.7812 52.3125 43.7812 49.5625C43.7812 46.8125 46.0312 44.5625 48.7812 44.5625C51.5312 44.5625 53.7812 46.8125 53.7812 49.5625C53.7812 52.3125 51.5312 54.5625 48.7812 54.5625Z" fill="#195360"/>
<path d="M50 71.875C55.8016 71.875 61.3656 69.5703 65.468 65.468C69.5703 61.3656 71.875 55.8016 71.875 50C71.875 44.1984 69.5703 38.6344 65.468 34.532C61.3656 30.4297 55.8016 28.125 50 28.125C44.1984 28.125 38.6344 30.4297 34.532 34.532C30.4297 38.6344 28.125 44.1984 28.125 50C28.125 55.8016 30.4297 61.3656 34.532 65.468C38.6344 69.5703 44.1984 71.875 50 71.875ZM50 35.9375C57.6562 36.0312 63.875 42.4375 63.875 50.1562V52.6875C63.875 55.4688 61.5938 57.75 58.8125 57.75C56.9062 57.75 55.25 56.6875 54.375 55.125C52.9375 56.5625 50.9375 57.4687 48.75 57.4687C44.375 57.4687 40.8125 53.9063 40.8125 49.5313C40.8125 45.1563 44.375 41.5938 48.75 41.5938C50.6563 41.5938 52.375 42.2812 53.75 43.375V43.0938C53.75 42.2812 54.4688 41.625 55.2813 41.625C56.0938 41.625 56.75 42.2812 56.75 43.0938V52.7188C56.75 53.274 56.9706 53.8066 57.3632 54.1993C57.7559 54.5919 58.2885 54.8125 58.8438 54.8125C59.399 54.8125 59.9316 54.5919 60.3243 54.1993C60.7169 53.8066 60.9375 53.274 60.9375 52.7188V50.1875C60.9375 44.0312 56 38.9687 49.9688 38.875C46.9688 38.875 44.125 40 42 42.0938C39.875 44.1875 38.6875 47 38.6875 50C38.6875 56.125 43.6875 61.125 49.8125 61.125C50.202 61.125 50.5756 61.2797 50.8511 61.5552C51.1265 61.8306 51.2812 62.2042 51.2812 62.5938C51.2812 62.9833 51.1265 63.3569 50.8511 63.6323C50.5756 63.9078 50.202 64.0625 49.8125 64.0625C42.0625 64.0625 35.75 57.75 35.75 50C35.75 46.2188 37.2187 42.6563 39.9375 40C42.625 37.3125 46.2188 35.875 50 35.9375Z" fill="#195360"/>
<path d="M3.125 21.9063C3.125 18.4313 5.93125 15.625 9.40625 15.625H90.625C94.0906 15.625 96.875 18.45 96.875 21.9063V78.125C96.875 81.5906 94.05 84.375 90.5938 84.375H9.40625C8.58104 84.3762 7.76369 84.2146 7.00106 83.8994C6.23843 83.5842 5.5455 83.1215 4.96198 82.538C4.37847 81.9545 3.91584 81.2616 3.60062 80.4989C3.28539 79.7363 3.12376 78.919 3.125 78.0938V21.9063ZM9.375 21.8906V23.4437L29.2188 36.0875C28.0459 37.8329 27.0987 39.7198 26.4 41.7031L9.375 30.8531V70.875L26.9375 59.6844C27.7481 61.6134 28.798 63.4329 30.0625 65.1L9.625 78.125H90.4219L69.9313 65.0844C71.1962 63.4153 72.2461 61.5937 73.0563 59.6625L90.625 70.8469V30.875L73.5875 41.7188C72.8908 39.7347 71.9458 37.8467 70.775 36.1L90.625 23.4719V21.8844L90.6125 21.875H9.39062L9.38125 21.8812L9.37812 21.8875V21.8906H9.375Z" fill="#195360"/>
</svg>
