<svg width="100" height="100" viewBox="0 0 100 100" fill="none" xmlns="http://www.w3.org/2000/svg">
<path d="M16.875 87.5C16.1806 87.5 15.4514 87.4833 14.6875 87.45C13.9236 87.4139 13.1944 87.3611 12.5 87.2917V62.9167L33.3333 58.75L45.4167 70.8333C50.6944 67.6389 55.5389 63.8542 59.95 59.4792C64.3583 55.1042 68.0208 50.4167 70.9375 45.4167L59.0625 33.4375L62.9167 12.5H87.2917C87.4306 13.1944 87.5 13.9236 87.5 14.6875V16.875C87.5 25.8333 85.5028 34.5653 81.5083 43.0708C77.5167 51.5792 72.2389 59.1319 65.675 65.7292C59.1139 72.3264 51.5806 77.6042 43.075 81.5625C34.5667 85.5208 25.8333 87.5 16.875 87.5Z" fill="#195360"/>
</svg>
