<svg width="100" height="100" viewBox="0 0 100 100" fill="none" xmlns="http://www.w3.org/2000/svg">
<path d="M50 49.9999C52.2917 49.9999 54.2542 49.1833 55.8875 47.5499C57.518 45.9194 58.3333 43.9583 58.3333 41.6666C58.3333 39.3749 57.518 37.4124 55.8875 35.7791C54.2542 34.1485 52.2917 33.3333 50 33.3333C47.7083 33.3333 45.7472 34.1485 44.1167 35.7791C42.4833 37.4124 41.6667 39.3749 41.6667 41.6666C41.6667 43.9583 42.4833 45.9194 44.1167 47.5499C45.7472 49.1833 47.7083 49.9999 50 49.9999ZM50 80.6249C58.4722 72.8471 64.7569 65.7805 68.8542 59.4249C72.9514 53.0721 75 47.4305 75 42.4999C75 34.9305 72.5861 28.7319 67.7583 23.9041C62.9333 19.0791 57.0139 16.6666 50 16.6666C42.9861 16.6666 37.0653 19.0791 32.2375 23.9041C27.4125 28.7319 25 34.9305 25 42.4999C25 47.4305 27.0486 53.0721 31.1458 59.4249C35.243 65.7805 41.5278 72.8471 50 80.6249ZM50 91.6666C38.8194 82.1527 30.4694 73.3152 24.95 65.1541C19.4278 56.9958 16.6667 49.4444 16.6667 42.4999C16.6667 32.0833 20.018 23.7846 26.7208 17.6041C33.4208 11.4235 41.1805 8.33325 50 8.33325C58.8194 8.33325 66.5792 11.4235 73.2792 17.6041C79.9819 23.7846 83.3333 32.0833 83.3333 42.4999C83.3333 49.4444 80.5736 56.9958 75.0542 65.1541C69.5319 73.3152 61.1805 82.1527 50 91.6666Z" fill="#195360"/>
</svg>
