<svg width="30" height="34" viewBox="0 0 30 34" fill="none" xmlns="http://www.w3.org/2000/svg">
<path d="M26.9179 17.7279C26.9377 17.954 26.9377 18.1789 26.9377 18.4037C26.9377 25.2848 20.7506 33.2138 9.44331 33.2138C5.9597 33.2138 2.72339 32.3597 0 30.8762C0.494606 30.924 0.970894 30.9408 1.48535 30.9408C4.25299 30.9465 6.94226 30.1631 9.11968 28.7169C7.83649 28.6972 6.59257 28.3389 5.56163 27.6918C4.53068 27.0448 3.76417 26.1414 3.36912 25.1077C3.74924 25.1555 4.13088 25.1878 4.53084 25.1878C5.08192 25.1878 5.63607 25.1232 6.15052 25.0108C4.75793 24.7728 3.50571 24.1338 2.60679 23.2026C1.70786 22.2713 1.21773 21.1053 1.21972 19.9027V19.8381C2.03949 20.2244 2.99054 20.4661 3.99807 20.4984C3.15401 20.0236 2.46192 19.3794 1.98352 18.6231C1.50513 17.8669 4.52979 1.57289 4.53084 0.715043C4.53084 -0.251536 1.56015 14.3112 2.09292 13.5385C3.63801 15.1473 5.56509 16.4635 7.74934 17.4018C9.9336 18.3401 12.3263 18.8795 14.7725 18.9852C14.6779 18.5975 14.6199 18.1957 14.6199 17.7925C14.6195 17.1089 14.7783 16.4319 15.0871 15.8002C15.396 15.1685 15.8489 14.5946 16.42 14.1112C16.9911 13.6278 17.6691 13.2444 18.4153 12.983C19.1615 12.7215 19.9613 12.5871 20.7689 12.5874C22.5397 12.5874 24.138 13.2154 25.2616 14.2311C26.6382 14.0058 27.9583 13.5804 29.1634 12.9738C28.7046 14.1766 22.0523 0.0690687 20.7689 0.715043C21.9898 0.597166 28.8741 15.4529 30 15.0362C29.1591 16.074 28.117 16.984 26.9179 17.7279Z" fill="#60A2B8"/>
</svg>
