<svg width="25" height="26" viewBox="0 0 25 26" fill="none" xmlns="http://www.w3.org/2000/svg">
<path fill-rule="evenodd" clip-rule="evenodd" d="M7.34659 0.618887C8.67955 0.55837 9.10455 0.544922 12.5 0.544922C15.8955 0.544922 16.3205 0.559491 17.6523 0.618887C18.9841 0.678284 19.8932 0.887853 20.6886 1.19156C21.5216 1.50199 22.2773 1.98725 22.9023 2.61484C23.5386 3.2301 24.0295 3.97424 24.3432 4.79682C24.6523 5.58131 24.8636 6.47786 24.925 7.78907C24.9864 9.10588 25 9.52502 25 12.8725C25 16.2211 24.9852 16.6403 24.925 17.9549C24.8648 19.2661 24.6523 20.1626 24.3432 20.9471C24.0295 21.7698 23.5378 22.5152 22.9023 23.1313C22.2773 23.7589 21.5216 24.2431 20.6886 24.5524C19.8932 24.8572 18.9841 25.0656 17.6545 25.1262C16.3205 25.1867 15.8955 25.2001 12.5 25.2001C9.10455 25.2001 8.67955 25.1856 7.34659 25.1262C6.01705 25.0668 5.10795 24.8572 4.3125 24.5524C3.47832 24.243 2.72252 23.7581 2.09773 23.1313C1.4618 22.5157 0.969676 21.7707 0.655682 20.9482C0.347727 20.1637 0.136364 19.2672 0.075 17.956C0.0136363 16.6392 0 16.22 0 12.8725C0 9.5239 0.0147727 9.10476 0.075 7.79131C0.135227 6.47786 0.347727 5.58131 0.655682 4.79682C0.97014 3.97433 1.46264 3.22933 2.09886 2.61372C2.72277 1.98669 3.47781 1.50137 4.31136 1.19156C5.10682 0.887853 6.01591 0.679405 7.34545 0.618887H7.34659ZM17.5511 2.83786C16.233 2.77846 15.8375 2.76613 12.5 2.76613C9.1625 2.76613 8.76705 2.77846 7.44886 2.83786C6.22955 2.89277 5.56818 3.09337 5.12727 3.2626C4.54432 3.48674 4.12727 3.75234 3.68977 4.18381C3.27505 4.58171 2.95589 5.06611 2.75568 5.60148C2.58409 6.03631 2.38068 6.68855 2.325 7.89105C2.26477 9.19105 2.25227 9.58105 2.25227 12.8725C2.25227 16.164 2.26477 16.554 2.325 17.854C2.38068 19.0565 2.58409 19.7087 2.75568 20.1436C2.95568 20.6781 3.275 21.1634 3.68977 21.5612C4.09318 21.9703 4.58523 22.2852 5.12727 22.4824C5.56818 22.6517 6.22955 22.8523 7.44886 22.9072C8.76705 22.9666 9.16136 22.9789 12.5 22.9789C15.8386 22.9789 16.233 22.9666 17.5511 22.9072C18.7705 22.8523 19.4318 22.6517 19.8727 22.4824C20.4557 22.2583 20.8727 21.9927 21.3102 21.5612C21.725 21.1634 22.0443 20.6781 22.2443 20.1436C22.4159 19.7087 22.6193 19.0565 22.675 17.854C22.7352 16.554 22.7477 16.164 22.7477 12.8725C22.7477 9.58105 22.7352 9.19105 22.675 7.89105C22.6193 6.68855 22.4159 6.03631 22.2443 5.60148C22.017 5.02656 21.7477 4.61527 21.3102 4.18381C20.9067 3.77483 20.4156 3.46008 19.8727 3.2626C19.4318 3.09337 18.7705 2.89277 17.5511 2.83786ZM10.9034 16.6728C11.7951 17.0388 12.7879 17.0882 13.7124 16.8126C14.6369 16.5369 15.4357 15.9532 15.9723 15.1612C16.5089 14.3693 16.7501 13.4182 16.6546 12.4703C16.5591 11.5225 16.133 10.6367 15.4489 9.96433C15.0128 9.53452 14.4855 9.20541 13.9049 9.0007C13.3244 8.79599 12.705 8.72077 12.0915 8.78045C11.4779 8.84013 10.8854 9.03323 10.3566 9.34585C9.82779 9.65847 9.37584 10.0828 9.0333 10.5884C8.69075 11.0939 8.46612 11.6681 8.37559 12.2695C8.28505 12.871 8.33085 13.4847 8.5097 14.0666C8.68855 14.6485 8.996 15.1841 9.40991 15.6347C9.82382 16.0854 10.3339 16.4399 10.9034 16.6728ZM7.95682 8.392C8.55344 7.80361 9.26173 7.33687 10.0412 7.01844C10.8208 6.7 11.6563 6.53611 12.5 6.53611C13.3437 6.53611 14.1792 6.7 14.9588 7.01844C15.7383 7.33687 16.4466 7.80361 17.0432 8.392C17.6398 8.98039 18.1131 9.67891 18.436 10.4477C18.7588 11.2164 18.925 12.0404 18.925 12.8725C18.925 13.7046 18.7588 14.5286 18.436 15.2974C18.1131 16.0661 17.6398 16.7647 17.0432 17.353C15.8383 18.5414 14.204 19.2089 12.5 19.2089C10.796 19.2089 9.16175 18.5414 7.95682 17.353C6.75189 16.1647 6.07497 14.553 6.07497 12.8725C6.07497 11.192 6.75189 9.58031 7.95682 8.392ZM20.35 7.47976C20.4978 7.34221 20.6162 7.17681 20.6981 6.99335C20.7799 6.80988 20.8236 6.61208 20.8266 6.41166C20.8296 6.21124 20.7917 6.01227 20.7153 5.82653C20.6389 5.64078 20.5255 5.47205 20.3818 5.33032C20.2381 5.18858 20.067 5.07672 19.8786 5.00137C19.6903 4.92601 19.4885 4.88869 19.2853 4.89161C19.0821 4.89454 18.8815 4.93764 18.6955 5.01838C18.5095 5.09912 18.3417 5.21584 18.2023 5.36165C17.931 5.64522 17.7825 6.02187 17.7883 6.41166C17.7941 6.80145 17.9536 7.17367 18.2331 7.44932C18.5126 7.72497 18.8901 7.88234 19.2853 7.88802C19.6805 7.89371 20.0625 7.74725 20.35 7.47976Z" fill="#60A2B8"/>
</svg>
